<svg width="56" height="57" viewBox="0 0 56 57" fill="none" xmlns="http://www.w3.org/2000/svg">
<path d="M28.817 48.5615C36.1418 48.4691 40.563 46.8955 43.1586 44.5295C45.6086 42.2895 46.2078 39.5539 46.303 37.3727H46.317V35.4407C46.3163 34.097 45.782 32.8087 44.8316 31.8589C43.8813 30.909 42.5926 30.3755 41.249 30.3755H32.317V30.3671H23.917V30.3755H14.985C12.185 30.3755 9.91699 32.6435 9.91699 35.4435V37.3727H9.93099C10.0262 39.5567 10.6254 42.2923 13.0754 44.5267C15.671 46.8955 20.0922 48.4691 27.417 48.5615V48.5671H28.817V48.5615Z" fill="url(#paint0_linear_103_943)"/>
<path d="M19.5 6.00037C19.5 5.73515 19.3946 5.4808 19.2071 5.29326C19.0196 5.10572 18.7652 5.00037 18.5 5.00037C18.2348 5.00037 17.9804 5.10572 17.7929 5.29326C17.6054 5.4808 17.5 5.73515 17.5 6.00037V8.00037H19.5V6.00037Z" fill="url(#paint1_linear_103_943)"/>
<path d="M35.5 6.00037C35.5 5.73515 35.6054 5.4808 35.7929 5.29326C35.9804 5.10572 36.2348 5.00037 36.5 5.00037C36.7652 5.00037 37.0196 5.10572 37.2071 5.29326C37.3946 5.4808 37.5 5.73515 37.5 6.00037L37.5 8.00037L35.5 8.00037L35.5 6.00037Z" fill="url(#paint2_linear_103_943)"/>
<path d="M13.5337 13.2504C13.5337 12.1895 13.9762 11.1721 14.7638 10.4219C15.5515 9.67179 16.6198 9.25037 17.7337 9.25037H37.3337C38.4476 9.25037 39.5159 9.67179 40.3035 10.4219C41.0912 11.1721 41.5337 12.1895 41.5337 13.2504V23.917C41.5337 24.9779 41.0912 25.9953 40.3035 26.7455C39.5159 27.4956 38.4476 27.917 37.3337 27.917H17.7337C16.6198 27.917 15.5515 27.4956 14.7638 26.7455C13.9762 25.9953 13.5337 24.9779 13.5337 23.917V13.2504Z" fill="url(#paint3_radial_103_943)"/>
<path d="M24.6006 20.0004L24.7453 20.0936C26.5367 21.2481 28.8468 21.2113 30.6006 20.0004V20.0004" stroke="white" stroke-linecap="round"/>
<path d="M33.5 16.0004C33.2348 16.0004 32.9804 16.1584 32.7929 16.4397C32.6054 16.721 32.5 17.1025 32.5 17.5004C32.5 17.8982 32.6054 18.2797 32.7929 18.561C32.9804 18.8423 33.2348 19.0004 33.5 19.0004C33.7652 19.0004 34.0196 18.8423 34.2071 18.561C34.3946 18.2797 34.5 17.8982 34.5 17.5004C34.5 17.1025 34.3946 16.721 34.2071 16.4397C34.0196 16.1584 33.7652 16.0004 33.5 16.0004Z" fill="white"/>
<path d="M20.5 17.5004C20.5 17.1025 20.6054 16.721 20.7929 16.4397C20.9804 16.1584 21.2348 16.0004 21.5 16.0004C21.7652 16.0004 22.0196 16.1584 22.2071 16.4397C22.3946 16.721 22.5 17.1025 22.5 17.5004C22.5 17.8982 22.3946 18.2797 22.2071 18.561C22.0196 18.8423 21.7652 19.0004 21.5 19.0004C21.2348 19.0004 20.9804 18.8423 20.7929 18.561C20.6054 18.2797 20.5 17.8982 20.5 17.5004Z" fill="white"/>
<path d="M33.0475 35.8158L32.3326 35.5844C32.1158 35.512 31.9188 35.3901 31.7571 35.2285C31.5955 35.0668 31.4736 34.8698 31.4012 34.653L31.1679 33.939C31.1486 33.8839 31.1126 33.8361 31.0649 33.8023C31.0173 33.7685 30.9603 33.7504 30.9019 33.7504C30.8435 33.7504 30.7865 33.7685 30.7389 33.8023C30.6912 33.8361 30.6552 33.8839 30.6359 33.939L30.4045 34.653C30.3333 34.8684 30.2135 35.0645 30.0542 35.2261C29.8949 35.3876 29.7005 35.5102 29.4861 35.5844L28.7721 35.8158C28.717 35.8352 28.6692 35.8711 28.6354 35.9188C28.6016 35.9664 28.5835 36.0234 28.5835 36.0818C28.5835 36.1402 28.6016 36.1972 28.6354 36.2449C28.6692 36.2925 28.717 36.3285 28.7721 36.3478L29.4861 36.5802C29.7037 36.6528 29.9013 36.7751 30.0633 36.9374C30.2253 37.0998 30.3473 37.2977 30.4194 37.5154L30.6508 38.2284C30.6702 38.2835 30.7061 38.3313 30.7538 38.3651C30.8014 38.3989 30.8584 38.417 30.9168 38.417C30.9752 38.417 31.0322 38.3989 31.0799 38.3651C31.1275 38.3313 31.1635 38.2835 31.1828 38.2284L31.4152 37.5154C31.4876 37.2983 31.6095 37.101 31.7714 36.9392C31.9332 36.7774 32.1305 36.6554 32.3476 36.583L33.0615 36.3516C33.1167 36.3322 33.1644 36.2963 33.1982 36.2486C33.232 36.201 33.2502 36.144 33.2502 36.0856C33.2502 36.0272 33.232 35.9702 33.1982 35.9225C33.1644 35.8749 33.1167 35.8389 33.0615 35.8196L33.0475 35.8158Z" fill="white"/>
<path d="M27.795 37.5333L28.1431 38.6042C28.2511 38.9301 28.4339 39.2261 28.6769 39.4687C28.9198 39.7112 29.2162 39.8936 29.5423 40.0011L30.6134 40.3491L30.6344 40.3551C30.717 40.3842 30.7886 40.4382 30.8392 40.5096C30.8898 40.5811 30.917 40.6665 30.917 40.7541C30.917 40.8416 30.8898 40.9271 30.8392 40.9985C30.7886 41.07 30.717 41.124 30.6344 41.1531L29.5633 41.501C29.2372 41.6086 28.9408 41.7909 28.6979 42.0335C28.4549 42.276 28.2721 42.5721 28.1641 42.8979L27.816 43.9678C27.787 44.0504 27.733 44.122 27.6615 44.1726C27.59 44.2232 27.5046 44.2504 27.417 44.2504C27.3294 44.2504 27.244 44.2232 27.1725 44.1726C27.101 44.122 27.047 44.0504 27.0179 43.9678L26.6689 42.8979C26.5447 42.5194 26.32 42.1818 26.0188 41.921C25.7999 41.7311 25.5457 41.5864 25.2707 41.495L24.1996 41.1471C24.117 41.118 24.0454 41.064 23.9948 40.9925C23.9442 40.9211 23.917 40.8356 23.917 40.7481C23.917 40.6605 23.9442 40.5751 23.9948 40.5036C24.0454 40.4322 24.117 40.3782 24.1996 40.3491L25.2707 40.0011C25.5927 39.8907 25.8847 39.707 26.1236 39.4646C26.3626 39.2222 26.5421 38.9277 26.6479 38.6042L26.9959 37.5343C27.0248 37.4514 27.0788 37.3795 27.1504 37.3286C27.222 37.2777 27.3076 37.2504 27.3955 37.2504C27.4833 37.2504 27.569 37.2777 27.6406 37.3286C27.7122 37.3795 27.7662 37.4514 27.795 37.5343" fill="white"/>
<defs>
<linearGradient id="paint0_linear_103_943" x1="26.9504" y1="30.8337" x2="26.9504" y2="47.7504" gradientUnits="userSpaceOnUse">
<stop stop-color="#707070"/>
<stop offset="1" stop-color="#252525"/>
</linearGradient>
<linearGradient id="paint1_linear_103_943" x1="17.454" y1="5.00037" x2="19.564" y2="7.45837" gradientUnits="userSpaceOnUse">
<stop stop-color="#707070"/>
<stop offset="1" stop-color="#252525"/>
</linearGradient>
<linearGradient id="paint2_linear_103_943" x1="37.546" y1="5.00037" x2="35.436" y2="7.45837" gradientUnits="userSpaceOnUse">
<stop stop-color="#707070"/>
<stop offset="1" stop-color="#252525"/>
</linearGradient>
<radialGradient id="paint3_radial_103_943" cx="0" cy="0" r="1" gradientUnits="userSpaceOnUse" gradientTransform="translate(26.9504 9.5837) rotate(90) scale(18.3333 36.7742)">
<stop stop-color="#707070"/>
<stop offset="1" stop-color="#252525"/>
</radialGradient>
</defs>
</svg>
