<svg width="56" height="57" viewBox="0 0 56 57" fill="none" xmlns="http://www.w3.org/2000/svg">
<path d="M10.8717 6.31551C9.8871 7.31766 9.33398 8.67687 9.33398 10.0941V50.4691C9.33398 50.9415 9.51835 51.3946 9.84654 51.7287C10.1747 52.0627 10.6199 52.2504 11.084 52.2504H42.0007H46.6673V49.8754V27.9066C46.6673 27.2049 46.5315 26.51 46.2677 25.8617C46.0039 25.2133 45.6171 24.6242 45.1296 24.128C44.6421 23.6318 44.0634 23.2382 43.4264 22.9696C42.7895 22.7011 42.1068 22.5629 41.4173 22.5629H37.334V10.0941C37.334 8.67687 36.7809 7.31766 35.7963 6.31551C34.8117 5.31337 33.4764 4.75037 32.084 4.75037H14.584C13.1916 4.75037 11.8563 5.31337 10.8717 6.31551Z" fill="url(#paint0_linear_166_323)"/>
<path d="M16.334 15.4379C16.334 16.0678 16.5798 16.6718 17.0174 17.1172C17.455 17.5626 18.0485 17.8129 18.6673 17.8129C19.2862 17.8129 19.8797 17.5626 20.3172 17.1172C20.7548 16.6718 21.0007 16.0678 21.0007 15.4379C21.0007 14.808 20.7548 14.2039 20.3172 13.7585C19.8797 13.3131 19.2862 13.0629 18.6673 13.0629C18.0485 13.0629 17.455 13.3131 17.0174 13.7585C16.5798 14.2039 16.334 14.808 16.334 15.4379ZM18.6673 29.6879C18.0485 29.6879 17.455 29.9381 17.0174 30.3835C16.5798 30.8289 16.334 31.433 16.334 32.0629C16.334 32.6928 16.5798 33.2968 17.0174 33.7422C17.455 34.1876 18.0485 34.4379 18.6673 34.4379C19.2862 34.4379 19.8797 34.1876 20.3172 33.7422C20.7548 33.2968 21.0007 32.6928 21.0007 32.0629C21.0007 31.433 20.7548 30.8289 20.3172 30.3835C19.8797 29.9381 19.2862 29.6879 18.6673 29.6879ZM18.6673 21.3754C18.0485 21.3754 17.455 21.6256 17.0174 22.071C16.5798 22.5164 16.334 23.1205 16.334 23.7504C16.334 24.3803 16.5798 24.9843 17.0174 25.4297C17.455 25.8751 18.0485 26.1254 18.6673 26.1254C19.2862 26.1254 19.8797 25.8751 20.3172 25.4297C20.7548 24.9843 21.0007 24.3803 21.0007 23.7504C21.0007 23.1205 20.7548 22.5164 20.3172 22.071C19.8797 21.6256 19.2862 21.3754 18.6673 21.3754ZM28.0007 13.0629C27.3818 13.0629 26.7883 13.3131 26.3507 13.7585C25.9132 14.2039 25.6673 14.808 25.6673 15.4379C25.6673 16.0678 25.9132 16.6718 26.3507 17.1172C26.7883 17.5626 27.3818 17.8129 28.0007 17.8129C28.6195 17.8129 29.213 17.5626 29.6506 17.1172C30.0882 16.6718 30.334 16.0678 30.334 15.4379C30.334 14.808 30.0882 14.2039 29.6506 13.7585C29.213 13.3131 28.6195 13.0629 28.0007 13.0629ZM28.0007 21.3754C27.3818 21.3754 26.7883 21.6256 26.3507 22.071C25.9132 22.5164 25.6673 23.1205 25.6673 23.7504C25.6673 24.3803 25.9132 24.9843 26.3507 25.4297C26.7883 25.8751 27.3818 26.1254 28.0007 26.1254C28.6195 26.1254 29.213 25.8751 29.6506 25.4297C30.0882 24.9843 30.334 24.3803 30.334 23.7504C30.334 23.1205 30.0882 22.5164 29.6506 22.071C29.213 21.6256 28.6195 21.3754 28.0007 21.3754Z" fill="url(#paint1_linear_166_323)"/>
<path d="M26.3504 30.3562C26.788 29.9108 27.3815 29.6606 28.0004 29.6606C28.6192 29.6606 29.2127 29.9108 29.6503 30.3562C30.0879 30.8016 30.3337 31.4057 30.3337 32.0356C30.3337 32.6655 30.0879 33.2695 29.6503 33.7149C29.2127 34.1603 28.6192 34.4106 28.0004 34.4106C27.3815 34.4106 26.788 34.1603 26.3504 33.7149C25.9129 33.2695 25.667 32.6655 25.667 32.0356C25.667 31.4057 25.9129 30.8016 26.3504 30.3562Z" fill="url(#paint2_linear_166_323)"/>
<defs>
<linearGradient id="paint0_linear_166_323" x1="28.0007" y1="4.75037" x2="28.0007" y2="52.2504" gradientUnits="userSpaceOnUse">
<stop stop-color="#BBBBBB"/>
<stop offset="1" stop-color="#F4F4F4"/>
</linearGradient>
<linearGradient id="paint1_linear_166_323" x1="21.3507" y1="10.6879" x2="32.8903" y2="35.6306" gradientUnits="userSpaceOnUse">
<stop stop-color="white"/>
<stop offset="1" stop-color="white"/>
</linearGradient>
<linearGradient id="paint2_linear_166_323" x1="21.3504" y1="10.6879" x2="32.89" y2="35.6306" gradientUnits="userSpaceOnUse">
<stop stop-color="white"/>
<stop offset="1" stop-color="white"/>
</linearGradient>
</defs>
</svg>
