<svg width="56" height="57" viewBox="0 0 56 57" fill="none" xmlns="http://www.w3.org/2000/svg">
<path d="M10.8712 6.31551C9.88662 7.31766 9.3335 8.67687 9.3335 10.0941V50.4691C9.3335 50.9415 9.51787 51.3946 9.84606 51.7287C10.1742 52.0627 10.6194 52.2504 11.0835 52.2504H42.0002H46.6668V49.8754V27.9066C46.6668 27.2049 46.531 26.51 46.2672 25.8617C46.0034 25.2133 45.6166 24.6242 45.1291 24.128C44.6416 23.6318 44.0629 23.2382 43.4259 22.9696C42.789 22.7011 42.1063 22.5629 41.4168 22.5629H37.3335V10.0941C37.3335 8.67687 36.7804 7.31766 35.7958 6.31551C34.8112 5.31337 33.4759 4.75037 32.0835 4.75037H14.5835C13.1911 4.75037 11.8558 5.31337 10.8712 6.31551Z" fill="url(#paint0_linear_103_906)"/>
<path d="M16.3335 15.4379C16.3335 16.0678 16.5793 16.6718 17.0169 17.1172C17.4545 17.5626 18.048 17.8129 18.6668 17.8129C19.2857 17.8129 19.8792 17.5626 20.3167 17.1172C20.7543 16.6718 21.0002 16.0678 21.0002 15.4379C21.0002 14.808 20.7543 14.2039 20.3167 13.7585C19.8792 13.3131 19.2857 13.0629 18.6668 13.0629C18.048 13.0629 17.4545 13.3131 17.0169 13.7585C16.5793 14.2039 16.3335 14.808 16.3335 15.4379ZM18.6668 29.6879C18.048 29.6879 17.4545 29.9381 17.0169 30.3835C16.5793 30.8289 16.3335 31.433 16.3335 32.0629C16.3335 32.6928 16.5793 33.2968 17.0169 33.7422C17.4545 34.1876 18.048 34.4379 18.6668 34.4379C19.2857 34.4379 19.8792 34.1876 20.3167 33.7422C20.7543 33.2968 21.0002 32.6928 21.0002 32.0629C21.0002 31.433 20.7543 30.8289 20.3167 30.3835C19.8792 29.9381 19.2857 29.6879 18.6668 29.6879ZM18.6668 21.3754C18.048 21.3754 17.4545 21.6256 17.0169 22.071C16.5793 22.5164 16.3335 23.1205 16.3335 23.7504C16.3335 24.3803 16.5793 24.9843 17.0169 25.4297C17.4545 25.8751 18.048 26.1254 18.6668 26.1254C19.2857 26.1254 19.8792 25.8751 20.3167 25.4297C20.7543 24.9843 21.0002 24.3803 21.0002 23.7504C21.0002 23.1205 20.7543 22.5164 20.3167 22.071C19.8792 21.6256 19.2857 21.3754 18.6668 21.3754ZM28.0002 13.0629C27.3813 13.0629 26.7878 13.3131 26.3502 13.7585C25.9127 14.2039 25.6668 14.808 25.6668 15.4379C25.6668 16.0678 25.9127 16.6718 26.3502 17.1172C26.7878 17.5626 27.3813 17.8129 28.0002 17.8129C28.619 17.8129 29.2125 17.5626 29.6501 17.1172C30.0877 16.6718 30.3335 16.0678 30.3335 15.4379C30.3335 14.808 30.0877 14.2039 29.6501 13.7585C29.2125 13.3131 28.619 13.0629 28.0002 13.0629ZM28.0002 21.3754C27.3813 21.3754 26.7878 21.6256 26.3502 22.071C25.9127 22.5164 25.6668 23.1205 25.6668 23.7504C25.6668 24.3803 25.9127 24.9843 26.3502 25.4297C26.7878 25.8751 27.3813 26.1254 28.0002 26.1254C28.619 26.1254 29.2125 25.8751 29.6501 25.4297C30.0877 24.9843 30.3335 24.3803 30.3335 23.7504C30.3335 23.1205 30.0877 22.5164 29.6501 22.071C29.2125 21.6256 28.619 21.3754 28.0002 21.3754Z" fill="url(#paint1_linear_103_906)"/>
<path d="M26.3502 30.3562C26.7878 29.9108 27.3813 29.6606 28.0002 29.6606C28.619 29.6606 29.2125 29.9108 29.6501 30.3562C30.0877 30.8016 30.3335 31.4057 30.3335 32.0356C30.3335 32.6655 30.0877 33.2695 29.6501 33.7149C29.2125 34.1603 28.619 34.4106 28.0002 34.4106C27.3813 34.4106 26.7878 34.1603 26.3502 33.7149C25.9127 33.2695 25.6668 32.6655 25.6668 32.0356C25.6668 31.4057 25.9127 30.8016 26.3502 30.3562Z" fill="url(#paint2_linear_103_906)"/>
<defs>
<linearGradient id="paint0_linear_103_906" x1="28.0002" y1="4.75037" x2="28.0002" y2="52.2504" gradientUnits="userSpaceOnUse">
<stop stop-color="#707070"/>
<stop offset="1" stop-color="#252525"/>
</linearGradient>
<linearGradient id="paint1_linear_103_906" x1="21.3502" y1="10.6879" x2="32.8898" y2="35.6306" gradientUnits="userSpaceOnUse">
<stop stop-color="white"/>
<stop offset="1" stop-color="white"/>
</linearGradient>
<linearGradient id="paint2_linear_103_906" x1="21.3502" y1="10.6879" x2="32.8898" y2="35.6306" gradientUnits="userSpaceOnUse">
<stop stop-color="white"/>
<stop offset="1" stop-color="white"/>
</linearGradient>
</defs>
</svg>
