<svg width="56" height="57" viewBox="0 0 56 57" fill="none" xmlns="http://www.w3.org/2000/svg">
<path d="M48 32.5004H38.1754H28V41.0337V48.5004H39.5789C41.8124 48.5004 43.9543 47.5809 45.5335 45.9442C47.1128 44.3075 48 42.0877 48 39.7731V32.5004Z" fill="url(#paint0_linear_166_327)"/>
<path d="M28 8.50037V20.5004V32.5004H48V16.5004C48 14.3786 47.0969 12.3438 45.4895 10.8435C43.882 9.34322 41.7019 8.50037 39.4286 8.50037H28Z" fill="url(#paint1_linear_166_327)"/>
<path d="M28 48.5004V24.5004L18 24.5003L8 24.5004V40.5004C8 42.6221 8.90306 44.6569 10.5105 46.1572C12.118 47.6575 14.2981 48.5004 16.5714 48.5004H28Z" fill="url(#paint2_linear_166_327)"/>
<path d="M28 8.50037V24.5004H8V18.1004C8 15.5543 8.90306 13.1125 10.5105 11.3121C12.118 9.51179 14.2981 8.50037 16.5714 8.50037H28Z" fill="url(#paint3_linear_166_327)"/>
<defs>
<linearGradient id="paint0_linear_166_327" x1="25.6842" y1="25.4354" x2="25.6842" y2="55.2075" gradientUnits="userSpaceOnUse">
<stop stop-color="#BBBBBB"/>
<stop offset="1" stop-color="white"/>
</linearGradient>
<linearGradient id="paint1_linear_166_327" x1="38.4685" y1="8.69855" x2="38.4685" y2="31.6115" gradientUnits="userSpaceOnUse">
<stop stop-color="#BBBBBB"/>
<stop offset="1" stop-color="white"/>
</linearGradient>
<linearGradient id="paint2_linear_166_327" x1="18.4822" y1="24.1958" x2="18.777" y2="44.9708" gradientUnits="userSpaceOnUse">
<stop stop-color="#BBBBBB"/>
<stop offset="1" stop-color="#F4F4F4"/>
</linearGradient>
<linearGradient id="paint3_linear_166_327" x1="13.8157" y1="28.3749" x2="13.8157" y2="11.0419" gradientUnits="userSpaceOnUse">
<stop stop-color="#BBBBBB"/>
<stop offset="1" stop-color="white"/>
</linearGradient>
</defs>
</svg>
