<svg width="56" height="57" viewBox="0 0 56 57" fill="none" xmlns="http://www.w3.org/2000/svg">
<path d="M7 28.5004C7 25.7426 7.54318 23.0119 8.59853 20.464C9.65388 17.9162 11.2007 15.6012 13.1508 13.6511C15.1008 11.7011 17.4158 10.1542 19.9636 9.0989C22.5115 8.04355 25.2422 7.50037 28 7.50037C30.7578 7.50037 33.4885 8.04355 36.0364 9.0989C38.5842 10.1542 40.8992 11.7011 42.8492 13.6511C44.7993 15.6012 46.3461 17.9162 47.4015 20.464C48.4568 23.0119 49 25.7426 49 28.5004C49 34.0699 46.7875 39.4113 42.8492 43.3496C38.911 47.2879 33.5695 49.5004 28 49.5004C22.4305 49.5004 17.089 47.2879 13.1508 43.3496C9.21249 39.4113 7 34.0699 7 28.5004Z" fill="url(#paint0_radial_166_332)"/>
<path d="M28 20.5004C28.5523 20.5004 29 20.9481 29 21.5004V27.5004H35C35.5523 27.5004 36 27.9481 36 28.5004C36 29.0527 35.5523 29.5004 35 29.5004H29V35.5004C29 36.0527 28.5523 36.5004 28 36.5004C27.4477 36.5004 27 36.0527 27 35.5004V29.5004H21C20.4477 29.5004 20 29.0527 20 28.5004C20 27.9481 20.4477 27.5004 21 27.5004H27V21.5004C27 20.9481 27.4477 20.5004 28 20.5004Z" fill="white"/>
<defs>
<radialGradient id="paint0_radial_166_332" cx="0" cy="0" r="1" gradientUnits="userSpaceOnUse" gradientTransform="translate(27.2924 29.2295) rotate(36.4006) scale(23.346)">
<stop stop-color="#BBBBBB"/>
<stop offset="1" stop-color="#F4F4F4"/>
</radialGradient>
</defs>
</svg>
