<svg width="56" height="57" viewBox="0 0 56 57" fill="none" xmlns="http://www.w3.org/2000/svg">
<path d="M9.06665 48.7074C9.70011 49.3386 10.5097 49.7636 11.389 49.9263C12.2684 50.0891 13.1764 49.9821 13.9938 49.6194L41.8658 37.2976C42.5231 37.0076 43.0997 36.5616 43.5457 35.9984C43.9917 35.4352 44.2936 34.7717 44.4252 34.0654C44.5568 33.3591 44.5143 32.6314 44.3011 31.9453C44.088 31.2592 43.7107 30.6355 43.2021 30.1281L26.318 13.2938C25.8083 12.7856 25.1825 12.4093 24.4947 12.1972C23.8069 11.9851 23.0778 11.9437 22.3704 12.0765C21.663 12.2093 20.9986 12.5124 20.4346 12.9595C19.8706 13.4066 19.4239 13.9843 19.1331 14.6428L6.8754 42.5386C6.51549 43.3533 6.41119 44.258 6.57628 45.1332C6.74137 46.0085 7.16807 46.8131 7.80003 47.4407L9.06665 48.7074Z" fill="url(#paint0_linear_103_920)"/>
<path d="M33.5583 8.05323C34.0084 8.16767 34.3955 8.45937 34.6344 8.8642C34.8733 9.26904 34.9445 9.75387 34.8323 10.2121L33.9573 13.7746C33.9061 14.0062 33.8099 14.225 33.6745 14.4183C33.539 14.6115 33.3669 14.7752 33.1684 14.8998C32.9699 15.0244 32.7489 15.1073 32.5184 15.1437C32.288 15.1801 32.0527 15.1693 31.8264 15.1118C31.6001 15.0544 31.3874 14.9514 31.2007 14.8091C31.0141 14.6668 30.8573 14.4879 30.7395 14.283C30.6217 14.0781 30.5454 13.8513 30.515 13.616C30.4845 13.3806 30.5006 13.1414 30.5623 12.9125L31.4373 9.34998C31.5497 8.8918 31.8363 8.49782 32.2341 8.25466C32.6318 8.01149 33.1081 7.93904 33.5583 8.05323ZM43.9988 12.0824C44.3269 12.4165 44.5112 12.8694 44.5112 13.3418C44.5112 13.8141 44.3269 14.2671 43.9988 14.6011L40.4988 18.1636C40.1707 18.4981 39.7254 18.6862 39.261 18.6865C38.7967 18.6868 38.3512 18.4994 38.0226 18.1654C37.694 17.8314 37.5092 17.3782 37.5088 16.9055C37.5085 16.4328 37.6927 15.9794 38.0208 15.6449L41.5208 12.0824C41.6834 11.9165 41.8765 11.7849 42.0891 11.6951C42.3017 11.6053 42.5296 11.5591 42.7598 11.5591C42.99 11.5591 43.2179 11.6053 43.4305 11.6951C43.6431 11.7849 43.8362 11.9165 43.9988 12.0824ZM46.2598 22.2498H42.7598C42.2957 22.2498 41.8506 22.4375 41.5224 22.7715C41.1942 23.1056 41.0098 23.5586 41.0098 24.031C41.0098 24.5035 41.1942 24.9565 41.5224 25.2906C41.8506 25.6246 42.2957 25.8123 42.7598 25.8123H46.2598C46.7239 25.8123 47.1691 25.6246 47.4972 25.2906C47.8254 24.9565 48.0098 24.5035 48.0098 24.031C48.0098 23.5586 47.8254 23.1056 47.4972 22.7715C47.1691 22.4375 46.7239 22.2498 46.2598 22.2498Z" fill="#707070"/>
<defs>
<linearGradient id="paint0_linear_103_920" x1="21.349" y1="13.8427" x2="20.5935" y2="51.6513" gradientUnits="userSpaceOnUse">
<stop stop-color="#707070"/>
<stop offset="1" stop-color="#252525"/>
</linearGradient>
</defs>
</svg>
