<svg width="56" height="56" viewBox="0 0 56 56" fill="none" xmlns="http://www.w3.org/2000/svg">
<path d="M42.6106 36.2597L36.9366 33.1416L23.5674 25.2223L35.2606 19.0128L42.6106 15.0742C43.1328 14.7871 43.7435 14.6193 44.3768 14.5887C45.0101 14.5581 45.6419 14.6661 46.2037 14.9008C46.7656 15.1355 47.2362 15.4882 47.5647 15.9205C47.8932 16.3529 48.067 16.8486 48.0674 17.354V33.9799C48.067 34.4853 47.8932 34.981 47.5647 35.4134C47.2362 35.8457 46.7656 36.1984 46.2037 36.4331C45.6419 36.6678 45.0101 36.7758 44.3768 36.7452C43.7435 36.7146 43.1328 36.5468 42.6106 36.2597Z" fill="url(#paint0_linear_166_340)"/>
<path d="M7.58398 19.6003C7.58398 17.3725 8.46897 15.2359 10.0443 13.6606C11.6196 12.0853 13.7562 11.2003 15.984 11.2003H29.9868C32.2146 11.2003 34.3512 12.0853 35.9265 13.6606C37.5018 15.2359 38.3868 17.3725 38.3868 19.6003V36.4031C38.3868 38.6309 37.5018 40.7675 35.9265 42.3428C34.3512 43.9181 32.2146 44.8031 29.9868 44.8031H15.9868C14.8835 44.8035 13.7909 44.5865 12.7714 44.1645C11.7519 43.7425 10.8256 43.1239 10.0453 42.3438C9.26496 41.5638 8.64597 40.6376 8.22366 39.6183C7.80134 38.599 7.58398 37.5065 7.58398 36.4031V19.6003Z" fill="url(#paint1_linear_166_340)"/>
<path d="M12.25 21.5837C12.25 20.346 12.687 19.159 13.465 18.2838C14.2429 17.4087 15.298 16.917 16.3981 16.917H26.7685C27.8687 16.917 28.9238 17.4087 29.7017 18.2838C30.4796 19.159 30.9167 20.346 30.9167 21.5837C30.9167 22.8213 30.4796 24.0083 29.7017 24.8835C28.9238 25.7587 27.8687 26.2503 26.7685 26.2503H16.3981C15.298 26.2503 14.2429 25.7587 13.465 24.8835C12.687 24.0083 12.25 22.8213 12.25 21.5837Z" fill="white"/>
<defs>
<linearGradient id="paint0_linear_166_340" x1="30.3717" y1="25.6681" x2="48.0279" y2="24.8334" gradientUnits="userSpaceOnUse">
<stop stop-color="#F4F4F4"/>
<stop offset="1" stop-color="#BBBBBB"/>
</linearGradient>
<linearGradient id="paint1_linear_166_340" x1="30.4966" y1="9.83113" x2="30.4966" y2="44.917" gradientUnits="userSpaceOnUse">
<stop stop-color="#BBBBBB"/>
<stop offset="1" stop-color="#F4F4F4"/>
</linearGradient>
</defs>
</svg>
