<svg width="56" height="56" viewBox="0 0 56 56" fill="none" xmlns="http://www.w3.org/2000/svg">
<path d="M42.6101 36.2597L36.9361 33.1416L23.5669 25.2223L35.2601 19.0128L42.6101 15.0742C43.1323 14.7871 43.743 14.6193 44.3763 14.5887C45.0096 14.5581 45.6414 14.6661 46.2032 14.9008C46.7651 15.1355 47.2357 15.4882 47.5642 15.9205C47.8927 16.3529 48.0665 16.8486 48.0669 17.354V33.9799C48.0665 34.4853 47.8927 34.981 47.5642 35.4134C47.2357 35.8457 46.7651 36.1984 46.2032 36.4331C45.6414 36.6678 45.0096 36.7758 44.3763 36.7452C43.743 36.7146 43.1323 36.5468 42.6101 36.2597Z" fill="url(#paint0_linear_103_936)"/>
<path d="M7.5835 19.6003C7.5835 17.3725 8.46849 15.2359 10.0438 13.6606C11.6191 12.0853 13.7557 11.2003 15.9835 11.2003H29.9863C32.2141 11.2003 34.3507 12.0853 35.926 13.6606C37.5013 15.2359 38.3863 17.3725 38.3863 19.6003V36.4031C38.3863 38.6309 37.5013 40.7675 35.926 42.3428C34.3507 43.9181 32.2141 44.8031 29.9863 44.8031H15.9863C14.883 44.8035 13.7904 44.5865 12.7709 44.1645C11.7514 43.7425 10.8251 43.1239 10.0448 42.3438C9.26448 41.5638 8.64549 40.6376 8.22318 39.6183C7.80086 38.599 7.5835 37.5065 7.5835 36.4031V19.6003Z" fill="url(#paint1_linear_103_936)"/>
<path opacity="0.5" d="M12.25 21.5837C12.25 20.346 12.687 19.159 13.465 18.2838C14.2429 17.4087 15.298 16.917 16.3981 16.917H26.7685C27.8687 16.917 28.9238 17.4087 29.7017 18.2838C30.4796 19.159 30.9167 20.346 30.9167 21.5837C30.9167 22.8213 30.4796 24.0083 29.7017 24.8835C28.9238 25.7587 27.8687 26.2503 26.7685 26.2503H16.3981C15.298 26.2503 14.2429 25.7587 13.465 24.8835C12.687 24.0083 12.25 22.8213 12.25 21.5837Z" fill="white"/>
<defs>
<linearGradient id="paint0_linear_103_936" x1="30.3712" y1="25.6681" x2="48.0274" y2="24.8334" gradientUnits="userSpaceOnUse">
<stop stop-color="#252525"/>
<stop offset="1" stop-color="#707070"/>
</linearGradient>
<linearGradient id="paint1_linear_103_936" x1="30.4961" y1="9.83111" x2="30.4961" y2="44.917" gradientUnits="userSpaceOnUse">
<stop stop-color="#707070"/>
<stop offset="1" stop-color="#252525"/>
</linearGradient>
</defs>
</svg>
