<svg width="56" height="57" viewBox="0 0 56 57" fill="none" xmlns="http://www.w3.org/2000/svg">
<path d="M12.2493 9.50037C10.2381 9.50037 8.30928 10.3136 6.88713 11.7611C5.46498 13.2087 4.66602 15.172 4.66602 17.2191V37.4066C4.66602 39.4538 5.46498 41.4171 6.88713 42.8646C8.30928 44.3121 10.2381 45.1254 12.2493 45.1254H43.7493C44.7452 45.1254 45.7313 44.9257 46.6514 44.5378C47.5714 44.1499 48.4074 43.5813 49.1116 42.8646C49.8157 42.1478 50.3743 41.2969 50.7554 40.3605C51.1365 39.424 51.3327 38.4203 51.3327 37.4066V17.2191C51.3327 16.2055 51.1365 15.2018 50.7554 14.2653C50.3743 13.3288 49.8157 12.4779 49.1116 11.7611C48.4074 11.0444 47.5714 10.4758 46.6514 10.0879C45.7313 9.70002 44.7452 9.50037 43.7493 9.50037H12.2493Z" fill="#CECECE"/>
<path d="M12.2493 9.50037C10.2381 9.50037 8.30928 10.3136 6.88713 11.7611C5.46498 13.2087 4.66602 15.172 4.66602 17.2191V37.4066C4.66602 39.4538 5.46498 41.4171 6.88713 42.8646C8.30928 44.3121 10.2381 45.1254 12.2493 45.1254H43.7493C44.7452 45.1254 45.7313 44.9257 46.6514 44.5378C47.5714 44.1499 48.4074 43.5813 49.1116 42.8646C49.8157 42.1478 50.3743 41.2969 50.7554 40.3605C51.1365 39.424 51.3327 38.4203 51.3327 37.4066V17.2191C51.3327 16.2055 51.1365 15.2018 50.7554 14.2653C50.3743 13.3288 49.8157 12.4779 49.1116 11.7611C48.4074 11.0444 47.5714 10.4758 46.6514 10.0879C45.7313 9.70002 44.7452 9.50037 43.7493 9.50037H12.2493Z" fill="url(#paint0_linear_166_335)"/>
<path d="M26.8 24.9379L26.8327 9.49561L29.166 9.50511L29.1333 24.9379H51.3327V27.3129H29.124L29.0843 45.1301L26.751 45.1206L26.7907 27.3129H4.66602V24.9379H26.8Z" fill="#E8E8E8"/>
<path fill-rule="evenodd" clip-rule="evenodd" d="M24.3792 29.4989C23.5645 29.4792 22.7669 29.2607 22.0559 28.8623C21.3449 28.4639 20.7421 27.8978 20.2999 27.2132C19.8577 26.5286 19.5896 25.7463 19.5189 24.9344C19.4481 24.1225 19.5769 23.3056 19.8941 22.5548C20.2112 21.804 20.707 21.1422 21.3384 20.6268C21.9698 20.1115 22.7175 19.7583 23.5166 19.598C24.3157 19.4377 25.1418 19.4752 25.9231 19.7072C26.7044 19.9391 27.4171 20.3585 27.9992 20.9289C28.5814 20.3585 29.2941 19.9391 30.0754 19.7072C30.8567 19.4752 31.6828 19.4377 32.4819 19.598C33.281 19.7583 34.0287 20.1115 34.6601 20.6268C35.2915 21.1422 35.7873 21.804 36.1044 22.5548C36.4216 23.3056 36.5504 24.1225 36.4796 24.9344C36.4089 25.7463 36.1407 26.5286 35.6986 27.2132C35.2564 27.8978 34.6535 28.4639 33.9426 28.8623C33.2316 29.2607 32.434 29.4792 31.6192 29.4989L35.0592 32.9389C35.2066 33.0762 35.3248 33.2418 35.4068 33.4258C35.4888 33.6098 35.5329 33.8085 35.5364 34.0099C35.54 34.2113 35.5029 34.4113 35.4275 34.5981C35.352 34.7849 35.2398 34.9545 35.0973 35.097C34.9549 35.2394 34.7852 35.3517 34.5984 35.4272C34.4117 35.5026 34.2116 35.5396 34.0102 35.5361C33.8088 35.5325 33.6102 35.4885 33.4262 35.4065C33.2422 35.3245 33.0766 35.2063 32.9392 35.0589L27.9992 30.1189L23.0592 35.0589C22.7749 35.3239 22.3988 35.4681 22.0102 35.4613C21.6216 35.4544 21.2508 35.297 20.976 35.0222C20.7012 34.7473 20.5437 34.3766 20.5369 33.988C20.53 33.5993 20.6743 33.2233 20.9392 32.9389L24.3792 29.4989ZM24.4992 22.4989C23.9688 22.4989 23.4601 22.7096 23.085 23.0847C22.71 23.4598 22.4992 23.9685 22.4992 24.4989C22.4992 25.0293 22.71 25.538 23.085 25.9131C23.4601 26.2882 23.9688 26.4989 24.4992 26.4989H26.4992V24.4989C26.4992 23.9685 26.2885 23.4598 25.9135 23.0847C25.5384 22.7096 25.0297 22.4989 24.4992 22.4989ZM31.4992 26.4989H29.4992V24.4989C29.4992 24.1033 29.6165 23.7167 29.8363 23.3878C30.0561 23.0589 30.3684 22.8025 30.7339 22.6511C31.0993 22.4998 31.5015 22.4602 31.8894 22.5373C32.2774 22.6145 32.6337 22.805 32.9135 23.0847C33.1932 23.3644 33.3836 23.7208 33.4608 24.1087C33.538 24.4967 33.4984 24.8988 33.347 25.2643C33.1956 25.6297 32.9393 25.9421 32.6104 26.1618C32.2815 26.3816 31.8948 26.4989 31.4992 26.4989Z" fill="white"/>
<defs>
<linearGradient id="paint0_linear_166_335" x1="27.416" y1="10.0941" x2="27.416" y2="45.7191" gradientUnits="userSpaceOnUse">
<stop offset="0.125" stop-color="#BBBBBB"/>
<stop offset="1" stop-color="#F4F4F4"/>
</linearGradient>
</defs>
</svg>
